 <svg version="1.0" xmlns="http://www.w3.org/2000/svg"
    width="50"
    height="100"
    viewBox="0 0 1280.000000 640.000000"
    preserveAspectRatio="xMidYMid meet">
      <g
      transform="translate(640.000000,960.000000) scale(0.100000,-0.100000) rotate(90)"
     stroke='red'
     stroke-width='250'
     fill='url(#diagonal-hatch)'
      >
      <pattern id="diagonal-hatch" width="2000" height="2000"
      patternTransform="rotate(45 0 0)"
      patternUnits="userSpaceOnUse" stroke="green" stroke-width="250">
        <rect x="0" y="0"
        width="1000" height="1000"
        />
        <rect x="1000" y="0"
        width="1000" height="1000"
        />
        <rect x="0" y="1000"
        width="1000" height="1000"
        fill="white"
        />
        <rect x="1000" y="1000"
       width="1000" height="1000"
        fill="white"/>
      </pattern>
      <path d="M1797 5234 c-836 -114 -1516 -703 -1726 -1495 -44 -164 -61 -283 -68
      -459 -13 -351 53 -663 206 -977 300 -614 866 -1018 1581 -1130 109 -17 334
      -18 4610 -18 4276 0 4501 1 4610 18 715 112 1281 516 1581 1130 153 314 219
      626 206 977 -7 176 -24 295 -68 459 -190 716 -764 1271 -1501 1451 -264 64 93
      60 -4843 59 -3699 -1 -4507 -4 -4588 -15z"/>
      </g>
    </svg>